<svg width="1085" height="878" viewBox="0 0 1085 878" fill="none" xmlns="http://www.w3.org/2000/svg">
<path d="M0.266667 49.3334L0.4 98.6668H122.533C191.067 98.6668 247.067 99.2001 250 100C265.067 103.467 272.533 119.2 265.333 132C262 138 260.933 138.8 90.1333 260C55.6 284.4 21.3333 308.933 13.8667 314.267L0.133333 324.267V368.8V413.333H139.867C234.133 413.333 281.067 413.867 284.533 414.8C291.2 416.667 299.467 424.267 301.733 430.4C303.067 434.4 303.467 468 303.467 600.667V766L214.133 766.4C151.467 766.667 123.333 766.4 119.733 765.333C116.8 764.533 111.867 761.333 108.667 758.4C98.4 748.933 98.8 754.667 98.8 625.067V510.667H49.3333H0L0.533333 638.933C0.933333 750 1.33333 768.533 3.2 776.667C14.6667 827.067 50.9333 863.867 99.8667 874.667C110.933 877.2 118.533 877.333 256.533 877.333H401.467L401.2 643.067C400.8 419.6 400.667 408.267 398.267 400C387.333 361.333 357.2 327.733 322.933 315.733C308.533 310.8 303.333 310.267 251.067 309.467L198.533 308.667L250.4 274C353.2 205.2 356.267 202.667 367.467 179.333C397.6 116.267 364.4 36.6668 296.133 8.40015C275.733 -0.13324 277.467 0.00012207 132 0.00012207H0.266667V49.3334Z" fill="black"/>
<path d="M449.467 280.667V561.333H495.2C520.267 561.333 561.6 561.467 587.2 561.733L633.467 562V510.267V458.667H590.8H548.133V338.933V219.333L559.2 240.667C572.133 265.733 579.867 278.933 597.867 306C669.733 414.533 767.2 501.333 887.467 563.733C922.8 582 936.4 590.8 948.8 603.333C962.933 617.733 971.333 633.6 975.734 653.733C978.534 666.533 978.534 693.6 975.6 706.533C967.467 744.4 944.533 770 912.8 776.667C899.067 779.6 714.533 779.6 700.933 776.667C660.8 768.133 636.267 731.467 632.133 673.867C631.467 664.667 630.8 656.933 630.533 656.933C630.267 656.8 607.733 656.8 580.533 657.067L530.8 657.333V670.667C530.8 704.4 540.533 746.267 555.067 775.333C583.067 830.933 632.133 868.267 687.333 875.867C694 876.8 736.667 877.333 807.867 877.333C929.867 877.333 930.533 877.333 956.4 868.8C1002.27 853.733 1040.93 819.6 1064.13 773.467C1070 761.6 1078.27 736.267 1081.07 721.333C1084.67 701.733 1084.27 661.2 1080.27 642.8C1071.2 600.267 1047.47 564 1009.47 534.533C980.4 512 955.867 498 899.467 472C834.533 442.133 787.6 409.067 738.133 358.533C688.667 308 653.6 258.133 617.6 186.8C589.733 131.467 562.4 61.6001 550.8 15.3334L547.067 0.666809L498.267 0.266785L449.467 0.00012207V280.667Z" fill="black"/>
<path d="M728.133 50.0002V100L833.867 100.267L939.467 100.667L947.2 104.267C956.667 108.667 966.8 118.933 971.333 128.533C979.2 145.067 978.8 136.267 978.8 320.267V489.333H1031.47H1084.27L1083.73 314.933C1083.33 143.6 1083.33 140.4 1080.53 128.667C1072.67 94.8001 1058.13 67.7335 1035.33 44.0002C1013.07 20.9335 987.867 7.20013 957.6 2.00015C948.4 0.400146 927.2 0.00012207 837.333 0.00012207H728.133V50.0002Z" fill="black"/>
</svg>
